<svg version="1.2" xmlns="http://www.w3.org/2000/svg" viewBox="0 0 140 23" width="140" height="23">
	<title>logo-small-svg</title>
	<style>
		.s0 { fill: none } 
		.s1 { fill: #000000;stroke: #000000;paint-order:stroke fill markers;stroke-linejoin: round;stroke-width: 0 } 
		.s2 { fill: #000000 } 
		.s3 { fill: #1c96d4 } 
		.s4 { fill: #c61a41 } 
		.s5 { fill: #eeb034 } 
	</style>
	<g id="Layer">
		<path id="canvas_background" class="s0" d="m-1 1h142v25h-142z"/>
	</g>
	<g id="Layer">
		<g id="Page-1">
			<g id="Group-3">
				<path id="svg_1" fill-rule="evenodd" class="s1" d="m39.2 19v-13h1.9v5.3h6.7v-5.3h1.9v13h-1.9v-6.2h-6.7v6.2zm12.2-11.5v-1.5h11.6v1.5h-4.8v11.5h-1.9v-11.5zm13.4 11.5v-13h2.8l3.5 8.9 3.5-8.9h2.8v13h-1.8v-11.4l-3.6 8.9h-1.8l-3.6-8.9v11.4zm16.3 0v-13h1.8v11.5h6.7v1.5zm10.5 0v-13h4.2q2.3 0 3.5 1 1.2 1 1.2 2.9 0 1.9-1.2 2.9-1.2 1-3.5 1h-2.3v5.2zm4.2-11.5h-2.4v4.8h2.4q1.3 0 2-0.6 0.7-0.6 0.7-1.8 0-1.2-0.7-1.8-0.7-0.6-2-0.6zm4.2 11.5l5.3-13h2.1l5.2 13h-1.9l-1.3-3.3h-6.2l-1.2 3.3zm8.8-4.8l-2.5-6.4-2.5 6.4zm14.8 2.9v-3.4h-3.1v-1.5h4.9v5.6q-1.1 0.7-2.4 1.1-1.3 0.4-2.7 0.4-3.3 0-5.1-1.8-1.8-1.8-1.8-5 0-3.2 1.8-4.9 1.8-1.8 5.1-1.8 1.3 0 2.5 0.3 1.2 0.3 2.2 0.9v1.9q-1-0.8-2.2-1.2-1.1-0.5-2.4-0.5-2.5 0-3.8 1.4-1.2 1.3-1.2 3.9 0 2.7 1.2 4 1.3 1.3 3.8 1.3 1 0 1.8-0.1 0.7-0.2 1.4-0.6zm5.2 1.9v-13h8.7v1.5h-6.9v3.8h6.6v1.5h-6.6v4.7h7v1.5z"/>
				<g id="Group">
					<path id="Shape" fill-rule="evenodd" class="s2" d="m25.9 3.2q0.1 0.5-0.2 0.8l-11.7 16.7c-0.2 0.2-0.5 0.4-0.8 0.4-0.3 0.1-0.6 0-0.8-0.1l-0.3-0.2c-0.2-0.2-0.4-0.4-0.5-0.7 0-0.3 0-0.6 0.2-0.8l11.8-16.6c0.1-0.2 0.4-0.4 0.7-0.5 0.3 0 0.6 0 0.8 0.2l0.3 0.2c0.3 0.1 0.4 0.4 0.5 0.6zm-0.7 0.5q0.1-0.1 0.1-0.3-0.1-0.2-0.2-0.3l-0.3-0.2q-0.2-0.1-0.4-0.1-0.2 0-0.3 0.2l-1.4 2 1.1 0.7 1.4-2zm-16.5 13.1q-0.2 0-0.4-0.1l-6-4.5q-0.3-0.2-0.3-0.5 0-0.3 0.3-0.5l6-4.5c0.3-0.2 0.7-0.2 0.9 0.1 0.3 0.3 0.2 0.7-0.1 0.9l-5.3 4 5.3 3.9c0.2 0.2 0.3 0.5 0.2 0.8-0.1 0.2-0.3 0.4-0.6 0.4zm20.1 0c-0.3 0-0.5-0.2-0.6-0.4-0.1-0.3 0-0.6 0.2-0.8l5.3-3.9-5.3-4c-0.2-0.1-0.3-0.4-0.3-0.6 0.1-0.2 0.2-0.4 0.5-0.5 0.2-0.1 0.4-0.1 0.6 0.1l6 4.5q0.3 0.2 0.3 0.5 0 0.3-0.3 0.5l-6 4.5q-0.2 0.1-0.4 0.1z"/>
					<path id="Shape" class="s3" d="m15.2 6.2c1-0.4 1.4-0.7 1.7-1.7 0.4 1 0.7 1.3 1.7 1.7-1 0.3-1.3 0.6-1.7 1.6-0.4-1-0.7-1.3-1.7-1.6z"/>
					<path id="Shape" class="s4" d="m9.7 10.5c1.8-0.7 2.3-1.1 3-2.8 0.6 1.7 1.2 2.1 3 2.8-1.8 0.6-2.4 1.1-3 2.8-0.7-1.7-1.2-2.2-3-2.8z"/>
					<path id="Shape" class="s5" d="m22.1 13.8c1.3-0.4 1.7-0.8 2.2-2 0.4 1.2 0.8 1.6 2.1 2-1.3 0.5-1.7 0.8-2.1 2.1-0.5-1.3-0.9-1.6-2.2-2.1z"/>
				</g>
			</g>
		</g>
	</g>
</svg>